<svg xmlns="http://www.w3.org/2000/svg" viewBox="0 0 644.48 168.12">
  <defs/>
  <defs>
    <style>
      .cls-2{fill:#1148b7}.cls-3{fill:#0e3ca5}.cls-4{fill:#5493f7}
    </style>
  </defs>
  <g style="isolation:isolate">
    <g id="Layer_2" data-name="Layer 2">
      <g id="Terra.js_copy_2" data-name="Terra.js copy 2">
        <path d="M226 56.85h-28.49v-19h77.69v19h-28.54v74.74H226zM268.63 96.1v-.27c0-20.49 14.6-37.37 35.5-37.37 24 0 35 18.62 35 39 0 1.61-.14 3.48-.27 5.36h-50c2 9.24 8.44 14.06 17.54 14.06 6.84 0 11.79-2.14 17.42-7.37l11.65 10.32c-6.7 8.3-16.34 13.39-29.33 13.39-21.57-.02-37.51-15.15-37.51-37.12zm50.63-6c-1.2-9.1-6.56-15.3-15.13-15.3s-13.93 6-15.54 15.27zM351.54 59.8h20.36v14.46c4.16-9.91 10.85-16.34 22.91-15.8v21.3h-1.07c-13.53 0-21.84 8.17-21.84 25.31v26.52h-20.36zM404.86 59.8h20.36v14.46c4.15-9.91 10.85-16.34 22.9-15.8v21.3h-1.07c-13.53 0-21.83 8.17-21.83 25.31v26.52h-20.36zM450.53 111v-.27c0-15.67 11.92-22.91 28.94-22.91A51 51 0 01497 90.74v-1.21c0-8.43-5.22-13.12-15.4-13.12-7.77 0-13.26 1.47-19.83 3.88l-5.09-15.54c7.92-3.48 15.69-5.75 27.88-5.75 11.11 0 19.15 2.95 24.24 8 5.36 5.36 7.77 13.26 7.77 22.91v41.65h-19.69v-7.76c-5 5.49-11.79 9.1-21.7 9.1-13.53.03-24.65-7.74-24.65-21.9zm46.75-4.69v-3.62a31.52 31.52 0 00-13-2.68c-8.71 0-14.07 3.49-14.07 9.91v.27c0 5.49 4.56 8.71 11.12 8.71 9.52-.03 15.95-5.25 15.95-12.62zM532.51 117.53h12.32v14.06h-12.32zM552.33 152.76v-8.44a33.68 33.68 0 005.09.4c4.69 0 7.9-2.81 7.9-9.24V62.34h10.32v73.27c0 12.19-6.43 17.82-16.88 17.82a25.87 25.87 0 01-6.43-.67zm12.32-116.94h11.79v11.39h-11.79zM591.17 122.75l5.23-7.36c7.5 5.62 15.8 8.84 24 8.84s14.34-4.29 14.34-11V113c0-7-8.18-9.65-17.28-12.19-10.85-3.08-22.91-6.84-22.91-19.56V81c0-11.92 9.91-19.82 23.58-19.82A47.33 47.33 0 01643 68.77l-4.69 7.77c-6.43-4.15-13.79-6.69-20.49-6.69-8.17 0-13.4 4.28-13.4 10v.27c0 6.56 8.58 9.11 17.82 11.92 10.71 3.21 22.23 7.37 22.23 19.82v.27c0 13.13-10.85 20.76-24.64 20.76a47.62 47.62 0 01-28.66-10.14zM72.12 122.92l-33.69-19.44v-38.9l33.69 19.45v38.89z" class="cls-2"/>
        <path d="M105.8 103.48l-33.68 19.44V84.03l33.68-19.45v38.9z" class="cls-3"/>
        <path d="M72.12 84.03L38.43 64.58l33.69-19.45 33.68 19.45-33.68 19.45z" class="cls-4"/>
        <path d="M110.78 145.76L77.1 126.31v-38.9l33.68 19.45v38.9z" class="cls-2"/>
        <path d="M144.47 126.31l-33.69 19.45v-38.9l33.69-19.45v38.9z" class="cls-3"/>
        <path d="M110.78 106.86L77.1 87.41l33.68-19.44 33.69 19.44-33.69 19.45z" class="cls-4"/>
        <path d="M33.69 145.28L0 125.84v-38.9l33.69 19.45v38.89z" class="cls-2"/>
        <path d="M67.37 125.84l-33.68 19.44v-38.89l33.68-19.45v38.9z" class="cls-3"/>
        <path d="M33.69 106.39L0 86.94l33.69-19.45 33.68 19.45-33.68 19.45z" class="cls-4"/>
        <path d="M72.35 168.12l-33.68-19.45v-38.9l33.68 19.45v38.9z" class="cls-2"/>
        <path d="M106.04 148.67l-33.69 19.45v-38.9l33.69-19.45v38.9z" class="cls-3"/>
        <path d="M72.35 129.22l-33.68-19.45 33.68-19.44 33.69 19.44-33.69 19.45z" class="cls-4"/>
        <path d="M72.13 77.79L38.44 58.34V19.45L72.13 38.9v38.89z" class="cls-2"/>
        <path d="M105.81 58.34L72.13 77.79V38.9l33.68-19.45v38.89z" class="cls-3"/>
        <path d="M72.13 38.9L38.44 19.45 72.13 0l33.68 19.45L72.13 38.9z" class="cls-4"/>
        <path d="M110.79 100.63L77.11 81.18v-38.9l33.68 19.45v38.9z" class="cls-2"/>
        <path d="M144.48 81.18l-33.69 19.45v-38.9l33.69-19.45v38.9z" class="cls-3"/>
        <path d="M110.79 61.73L77.11 42.28l33.68-19.45 33.69 19.45-33.69 19.45z" class="cls-4"/>
        <path d="M33.69 100.15L.01 80.7V41.81l33.68 19.45v38.89z" class="cls-2"/>
        <path d="M67.38 80.7l-33.69 19.45V61.26l33.69-19.45V80.7z" class="cls-3"/>
        <path d="M33.69 61.26L.01 41.81l33.68-19.45 33.69 19.45-33.69 19.45z" class="cls-4"/>
        <g opacity=".8">
          <path d="M72.13 122.92l-33.69-19.44v-38.9l33.69 19.45v38.89z" class="cls-2"/>
          <path d="M105.81 103.48l-33.68 19.44V84.03l33.68-19.45v38.9z" class="cls-3"/>
          <path fill="#5493f7" d="M72.13 84.03L38.44 64.58l33.69-19.45 33.68 19.45-33.68 19.45z" opacity=".6"/>
        </g>
      </g>
    </g>
  </g>
</svg>